<svg xmlns="http://www.w3.org/2000/svg" xmlns:xlink="http://www.w3.org/1999/xlink" width="692" zoomAndPan="magnify" viewBox="0 0 519 261.749984" height="349" preserveAspectRatio="xMidYMid meet" version="1.0"><defs><g/><clipPath id="e88e56b0a4"><path d="M 93 88 L 185.757812 88 L 185.757812 186.277344 L 93 186.277344 Z M 93 88 " clip-rule="nonzero"/></clipPath><clipPath id="200942baad"><path d="M 87.246094 77.976562 L 144 77.976562 L 144 172 L 87.246094 172 Z M 87.246094 77.976562 " clip-rule="nonzero"/></clipPath><clipPath id="e6c2b6e8de"><path d="M 75.632812 75.65625 L 84.808594 75.65625 L 84.808594 186.40625 L 75.632812 186.40625 Z M 75.632812 75.65625 " clip-rule="nonzero"/></clipPath></defs><path fill="#3871c1" d="M 164.449219 137.074219 L 132.71875 83.042969 C 132.71875 83.042969 127.378906 86.421875 121.679688 91.695312 L 124.855469 97.105469 C 126.617188 96.15625 128.546875 95.289062 130.652344 94.550781 L 154.308594 133.382812 C 154.308594 133.382812 105.441406 150.125 93.089844 179.277344 C 93.089844 179.277344 112.179688 150.503906 164.449219 137.074219 " fill-opacity="1" fill-rule="nonzero"/><g clip-path="url(#e88e56b0a4)"><path fill="#2e3192" d="M 154 88.828125 C 154 88.828125 148.664062 92.207031 142.960938 97.480469 L 146.136719 102.886719 C 147.902344 101.941406 149.828125 101.074219 151.933594 100.335938 L 175.589844 139.167969 C 175.589844 139.167969 114.816406 152.984375 93.675781 186.28125 C 93.675781 186.28125 121.382812 158.789062 185.730469 142.859375 L 154 88.828125 " fill-opacity="1" fill-rule="nonzero"/></g><g clip-path="url(#200942baad)"><path fill="#00adef" d="M 92.402344 171.023438 C 92.402344 171.023438 106.636719 141.882812 143.605469 132.007812 L 111.875 77.976562 C 111.875 77.976562 87.804688 93.203125 87.273438 109.492188 C 87.273438 109.492188 92.90625 95.421875 109.808594 89.484375 L 133.464844 128.316406 C 133.464844 128.316406 100.070312 142.808594 92.402344 171.023438 " fill-opacity="1" fill-rule="nonzero"/></g><g clip-path="url(#e6c2b6e8de)"><path fill="#00adef" d="M 75.632812 75.667969 L 84.808594 75.667969 L 84.808594 186.398438 L 75.632812 186.398438 L 75.632812 75.667969 " fill-opacity="1" fill-rule="nonzero"/></g><g fill="#2e3192" fill-opacity="1"><g transform="translate(180.556789, 114.704707)"><g><path d="M 29.488281 -6.914062 L 13.421875 -6.914062 L 13.421875 -20.335938 L 2.035156 -20.335938 L 2.035156 0 L 29.488281 0 Z M 29.488281 -6.914062 "/></g></g></g><g fill="#2e3192" fill-opacity="1"><g transform="translate(211.738358, 114.704707)"><g><path d="M 13.421875 -20.335938 L 2.035156 -20.335938 L 2.035156 0 L 13.421875 0 Z M 13.421875 -20.335938 "/></g></g></g><g fill="#2e3192" fill-opacity="1"><g transform="translate(227.186858, 114.704707)"><g><path d="M 12.203125 -20.335938 L 19.441406 -9.191406 L 26.84375 -20.335938 L 38.636719 -20.335938 L 25.132812 0 L 13.746094 0 L 0.40625 -20.335938 Z M 12.203125 -20.335938 "/></g></g></g><g fill="#2e3192" fill-opacity="1"><g transform="translate(266.214641, 114.704707)"><g><path d="M 29.28125 -8.785156 C 31.398438 -9.84375 32.535156 -11.550781 32.535156 -13.828125 C 32.535156 -17.976562 29 -20.335938 22.734375 -20.335938 L 2.035156 -20.335938 L 2.035156 0 L 13.421875 0 L 13.421875 -7.523438 L 18.300781 -7.523438 C 20.78125 -7.523438 22.164062 -6.628906 22.164062 -5.003906 L 22.164062 0 L 32.332031 0 L 32.332031 -3.292969 C 32.332031 -5.773438 31.277344 -7.644531 29.28125 -8.785156 Z M 19.929688 -12.8125 L 13.421875 -12.8125 L 13.421875 -14.640625 L 19.929688 -14.640625 C 21.472656 -14.640625 22.367188 -14.316406 22.367188 -13.707031 C 22.367188 -13.136719 21.472656 -12.8125 19.929688 -12.8125 Z M 19.929688 -12.8125 "/></g></g></g><g fill="#2e3192" fill-opacity="1"><g transform="translate(300.485918, 114.704707)"><g><path d="M 25.621094 -3.171875 L 27.574219 0 L 38.554688 0 L 25.214844 -20.335938 L 13.828125 -20.335938 L 0.324219 0 L 11.304688 0 L 13.300781 -3.171875 Z M 22.328125 -8.460938 L 16.632812 -8.460938 L 19.523438 -13.015625 Z M 22.328125 -8.460938 "/></g></g></g><g fill="#2e3192" fill-opacity="1"><g transform="translate(339.351087, 114.704707)"><g><path d="M 29.28125 -8.785156 C 31.398438 -9.84375 32.535156 -11.550781 32.535156 -13.828125 C 32.535156 -17.976562 29 -20.335938 22.734375 -20.335938 L 2.035156 -20.335938 L 2.035156 0 L 13.421875 0 L 13.421875 -7.523438 L 18.300781 -7.523438 C 20.78125 -7.523438 22.164062 -6.628906 22.164062 -5.003906 L 22.164062 0 L 32.332031 0 L 32.332031 -3.292969 C 32.332031 -5.773438 31.277344 -7.644531 29.28125 -8.785156 Z M 19.929688 -12.8125 L 13.421875 -12.8125 L 13.421875 -14.640625 L 19.929688 -14.640625 C 21.472656 -14.640625 22.367188 -14.316406 22.367188 -13.707031 C 22.367188 -13.136719 21.472656 -12.8125 19.929688 -12.8125 Z M 19.929688 -12.8125 "/></g></g></g><g fill="#2e3192" fill-opacity="1"><g transform="translate(373.622365, 114.704707)"><g><path d="M 13.421875 -20.335938 L 2.035156 -20.335938 L 2.035156 0 L 13.421875 0 Z M 13.421875 -20.335938 "/></g></g></g><g fill="#2e3192" fill-opacity="1"><g transform="translate(389.070864, 114.704707)"><g><path d="M 25.621094 -3.171875 L 27.574219 0 L 38.554688 0 L 25.214844 -20.335938 L 13.828125 -20.335938 L 0.324219 0 L 11.304688 0 L 13.300781 -3.171875 Z M 22.328125 -8.460938 L 16.632812 -8.460938 L 19.523438 -13.015625 Z M 22.328125 -8.460938 "/></g></g></g><g fill="#2e3192" fill-opacity="1"><g transform="translate(185.75543, 148.425901)"><g><path d="M 17.285156 -20.335938 L 2.035156 -20.335938 L 2.035156 0 L 17.285156 0 C 27.050781 0 32.539062 -3.660156 32.539062 -10.167969 C 32.539062 -16.675781 27.050781 -20.335938 17.285156 -20.335938 Z M 17.328125 -6.914062 L 13.421875 -6.914062 L 13.421875 -13.421875 L 17.328125 -13.421875 C 19.769531 -13.421875 21.152344 -12.242188 21.152344 -10.167969 C 21.152344 -8.09375 19.769531 -6.914062 17.328125 -6.914062 Z M 17.328125 -6.914062 "/></g></g></g><g fill="#2e3192" fill-opacity="1"><g transform="translate(219.841474, 148.425901)"><g><path d="M 13.421875 -20.335938 L 2.035156 -20.335938 L 2.035156 0 L 13.421875 0 Z M 13.421875 -20.335938 "/></g></g></g><g fill="#2e3192" fill-opacity="1"><g transform="translate(235.298149, 148.425901)"><g><path d="M 33.191406 0 L 33.355469 -10.167969 L 17.53125 -10.167969 L 17.53125 -7.199219 L 20.460938 -7.199219 C 19.726562 -6.753906 18.75 -6.507812 17.53125 -6.507812 C 14.644531 -6.507812 13.015625 -7.808594 13.015625 -10.167969 C 13.015625 -12.527344 14.644531 -13.828125 17.53125 -13.828125 C 19.808594 -13.828125 21.273438 -13.015625 21.761719 -11.46875 L 32.988281 -12.894531 C 31.644531 -17.9375 26.195312 -20.746094 17.492188 -20.746094 C 7.320312 -20.746094 1.628906 -16.921875 1.628906 -10.167969 C 1.628906 -3.417969 7.320312 0.40625 17.492188 0.40625 C 21.109375 0.40625 24.285156 -0.449219 26.925781 -2.074219 L 28.1875 0 Z M 33.191406 0 "/></g></g></g><g fill="#2e3192" fill-opacity="1"><g transform="translate(270.685812, 148.425901)"><g><path d="M 13.421875 -20.335938 L 2.035156 -20.335938 L 2.035156 0 L 13.421875 0 Z M 13.421875 -20.335938 "/></g></g></g><g fill="#2e3192" fill-opacity="1"><g transform="translate(286.142487, 148.425901)"><g><path d="M 32.335938 -13.421875 L 32.335938 -20.335938 L 1.832031 -20.335938 L 1.832031 -13.421875 L 11.390625 -13.421875 L 11.390625 0 L 22.777344 0 L 22.777344 -13.421875 Z M 32.335938 -13.421875 "/></g></g></g><g fill="#2e3192" fill-opacity="1"><g transform="translate(320.309878, 148.425901)"><g><path d="M 25.625 -3.171875 L 27.578125 0 L 38.558594 0 L 25.21875 -20.335938 L 13.828125 -20.335938 L 0.324219 0 L 11.308594 0 L 13.300781 -3.171875 Z M 22.332031 -8.460938 L 16.636719 -8.460938 L 19.523438 -13.015625 Z M 22.332031 -8.460938 "/></g></g></g><g fill="#2e3192" fill-opacity="1"><g transform="translate(359.195623, 148.425901)"><g><path d="M 29.488281 -6.914062 L 13.421875 -6.914062 L 13.421875 -20.335938 L 2.035156 -20.335938 L 2.035156 0 L 29.488281 0 Z M 29.488281 -6.914062 "/></g></g></g><g fill="#2e3192" fill-opacity="1"><g transform="translate(390.39199, 148.425901)"><g/></g></g></svg>